<svg xmlns="http://www.w3.org/2000/svg" xmlns:xlink="http://www.w3.org/1999/xlink" version="1.1" x="0px" y="0px" viewBox="0 0 100 125" enable-background="new 0 0 100 100" xml:space="preserve"><g><path d="M53.188,10.241c-21.656,0.294-39.036,18.152-38.741,39.808c0.294,21.656,18.152,39.035,39.809,38.74   c21.655-0.293,39.034-18.152,38.74-39.808C92.701,27.326,74.844,9.947,53.188,10.241z M54.23,86.91   c-20.62,0.279-37.623-16.268-37.903-36.887c-0.28-20.62,16.267-37.622,36.887-37.902c20.619-0.28,37.622,16.267,37.901,36.886   C91.396,69.627,74.85,86.629,54.23,86.91z"/><path d="M53.536,35.875c-4.606,0.062-8.761,0.943-9.188,10.28c-0.019,0.074-0.044,0.146-0.044,0.227   c0.002,0.046,0.021,0.085,0.029,0.129c-0.021,0.589-0.029,1.208-0.021,1.864c0.132,9.719,6.33,26.583,9.753,26.538   c3.423-0.047,9.16-17.074,9.029-26.792C62.939,36.694,58.484,35.807,53.536,35.875z M54.04,72.968   c-1.323-0.995-4.823-8.248-6.669-16.046l6.45-0.088c0.52-0.006,0.935-0.433,0.927-0.951c-0.007-0.52-0.434-0.935-0.952-0.928   l-6.834,0.093c-0.197-0.994-0.362-1.989-0.489-2.975c0.066,0.014,0.129,0.038,0.199,0.038l7.084-0.098   c0.52-0.006,0.934-0.433,0.928-0.951c-0.008-0.52-0.434-0.936-0.953-0.928l-7.083,0.096c-0.128,0.002-0.25,0.03-0.36,0.078   c-0.053-0.662-0.084-1.317-0.094-1.959c-0.005-0.365-0.004-0.713,0-1.054l7.497-0.102c0.519-0.007,0.935-0.433,0.927-0.952   c-0.007-0.52-0.434-0.935-0.952-0.927l-7.396,0.101c0.543-7.563,3.83-7.613,7.292-7.661c3.862-0.052,7.511-0.102,7.653,10.391   C61.354,58.307,55.814,71.557,54.04,72.968z"/><path d="M49.641,34.588c0.52-0.007,0.935-0.434,0.928-0.953l-0.084-6.193c-0.008-0.519-0.434-0.934-0.953-0.927   c-0.52,0.007-0.935,0.434-0.928,0.953l0.084,6.192C48.695,34.18,49.122,34.595,49.641,34.588z"/><path d="M57.396,34.482c0.519-0.007,0.934-0.434,0.927-0.952l-0.084-6.193c-0.007-0.52-0.435-0.935-0.953-0.927   c-0.519,0.007-0.935,0.434-0.927,0.952l0.084,6.193C56.45,34.074,56.877,34.49,57.396,34.482z"/><path d="M53.52,34.635c0.52-0.007,0.935-0.434,0.928-0.953l-0.117-8.636c-0.008-0.52-0.434-0.934-0.953-0.927   s-0.935,0.434-0.928,0.953l0.117,8.636C52.574,34.228,53,34.642,53.52,34.635z"/></g><text x="0" y="115" fill="#000000" font-size="5px" font-weight="bold" font-family="'Helvetica Neue', Helvetica, Arial-Unicode, Arial, Sans-serif">Created by Kaylen</text><text x="0" y="120" fill="#000000" font-size="5px" font-weight="bold" font-family="'Helvetica Neue', Helvetica, Arial-Unicode, Arial, Sans-serif">from the Noun Project</text></svg>
