<svg xmlns="http://www.w3.org/2000/svg" xmlns:xlink="http://www.w3.org/1999/xlink" version="1.1" x="0px" y="0px" viewBox="0 0 64 80" style="enable-background:new 0 0 64 64;" xml:space="preserve"><path d="M47,19c-3.8,0-6.5-1.5-9.5-3.3C33.7,13.5,29.4,11,22,11c-8.5,0-22,5.7-22,21c0,14.6,11.7,23,32,23  c21.2,0,32-6.4,32-19C64,26.5,56.5,19,47,19z M32,53C20.8,53,2,50.3,2,32c0-13.8,12.3-19,20-19c6.8,0,10.7,2.2,14.5,4.4  C39.6,19.3,42.6,21,47,21c8.4,0,15,6.6,15,15C62,47.4,52.2,53,32,53z M22,18c-4.8,0-9.4,2.2-12.2,5.9c-0.2,0.3-1,0.5-1.4,0.2  s-0.5-1-0.2-1.4C11.4,18.5,16.6,16,22,16c0.6,0,1,0.4,1,1S22.6,18,22,18z M7.9,27.4C7.3,28.9,7,30.4,7,32c0,0.6-0.4,1-1,1  s-1-0.4-1-1c0-1.8,0.3-3.6,1-5.4c0.2-0.5,0.8-0.8,1.3-0.6C7.8,26.3,8.1,26.8,7.9,27.4z M17.8,25.3c0.9,1,1.2,2.1,1.2,3.7  s-0.4,2.7-1.3,3.7c-0.4,0.4-1,0.4-1.4,0.1c-0.4-0.4-0.4-1-0.1-1.4c0.5-0.5,0.7-1.1,0.7-2.3c0-1.1,0-1.8-0.7-2.4  c-0.4-0.3-0.3-1.1,0.1-1.5S17.4,24.9,17.8,25.3z M30.8,21.3c0.9,1,1.2,2.1,1.2,3.7s-0.4,2.7-1.3,3.7c-0.4,0.4-1,0.4-1.4,0.1  c-0.4-0.4-0.4-1-0.1-1.4c0.5-0.5,0.7-1.1,0.7-2.3c0-1.1,0-1.8-0.7-2.4c-0.4-0.3-0.3-1.1,0.1-1.5S30.4,20.9,30.8,21.3z M43.8,25.3  c0.9,1,1.2,2.1,1.2,3.7s-0.4,2.7-1.3,3.7c-0.4,0.4-1,0.4-1.4,0.1c-0.4-0.4-0.4-1-0.1-1.4c0.5-0.5,0.7-1.1,0.7-2.3  c0-1.1,0-1.8-0.7-2.4c-0.4-0.3-0.3-1.1,0.1-1.5S43.4,24.9,43.8,25.3z M23.8,37.3c0.9,1,1.2,2.1,1.2,3.7s-0.4,2.7-1.3,3.7  c-0.4,0.4-1,0.4-1.4,0.1c-0.4-0.4-0.4-1-0.1-1.4c0.5-0.5,0.7-1.1,0.7-2.3c0-1.1,0-1.8-0.7-2.4c-0.4-0.3-0.3-1.1,0.1-1.5  S23.4,36.9,23.8,37.3z M35.8,40.3c0.9,1,1.2,2.1,1.2,3.7s-0.4,2.7-1.3,3.7c-0.4,0.4-1,0.4-1.4,0.1c-0.4-0.4-0.4-1-0.1-1.4  c0.5-0.5,0.7-1.1,0.7-2.3c0-1.1,0-1.8-0.7-2.4c-0.4-0.3-0.3-1.1,0.1-1.5S35.4,39.9,35.8,40.3z M50.8,38.3c0.9,1,1.2,2.1,1.2,3.7  c0,1.6-0.4,2.7-1.3,3.7c-0.4,0.4-1,0.4-1.4,0.1c-0.4-0.4-0.4-1-0.1-1.4c0.5-0.5,0.7-1.1,0.7-2.3c0-1.1,0-1.8-0.7-2.4  c-0.4-0.3-0.3-1.1,0.1-1.5S50.4,37.9,50.8,38.3z"/></svg>
