<svg xmlns="http://www.w3.org/2000/svg" data-name="Layer 1" viewBox="0 0 128 160" x="0px" y="0px"><title>Artboard 65</title><path d="M103.85,68.88A47.41,47.41,0,0,0,120,53.07c5.5-8.73,8.1-18.58,7.32-27.74-.8-9.37-5-16.92-11.9-21.25A24.73,24.73,0,0,0,100.13.5a2,2,0,0,0-.48-.07A46.55,46.55,0,0,0,73.84,8.48,47.41,47.41,0,0,0,58.43,25,21.6,21.6,0,0,1,41.72,36.08c-.82.09-1.65.2-2.47.34L3.41.59.59,3.41l34,34a49.17,49.17,0,0,0-14.07,6.46C2.64,55.82-4.48,76.71,4.68,90.48c4.73,7.12,13.08,11.23,23,11.43.54,9.42,4.59,17.66,11.93,22.29a24.31,24.31,0,0,0,13.11,3.67c11.85,0,24.84-7.61,33.07-20.66a49.49,49.49,0,0,0,5.75-12.8l33,33,2.83-2.83L92.62,89.79c.23-1.31.42-2.63.52-3.94A21.6,21.6,0,0,1,103.85,68.88ZM8,88.27c-7.94-11.94-1.32-30.34,14.75-41a43.41,43.41,0,0,1,19.37-7.19,25.6,25.6,0,0,0,19.8-13.17A43.41,43.41,0,0,1,76.06,11.81c.67-.44,1.34-.86,2-1.26A49.31,49.31,0,0,0,69.2,21.07a47.41,47.41,0,0,0-7.32,21.36,21.57,21.57,0,0,1-2.45,8.39c-6.12-5.09-19-3.31-31.14,4.76C14.76,64.57,8,77.48,13,84.95c2.14,3.22,6.11,4.9,11.2,4.9A27.62,27.62,0,0,0,29,89.39a43.18,43.18,0,0,0-1.26,8.53C19.1,97.74,12,94.25,8,88.27ZM30.29,85c-6.6,1.63-11.91.77-14-2.3-3.6-5.42,2.89-16.33,14.18-23.83,10.62-7.06,22.38-9,26.73-4.73a21.57,21.57,0,0,1-6.05,5.23A47.42,47.42,0,0,0,35.07,75.21,49.81,49.81,0,0,0,30.29,85Zm52.15,20c-10.29,16.33-28.53,23.39-40.66,15.74S28.16,93.67,38.46,77.34A43.41,43.41,0,0,1,53.19,62.86,25.59,25.59,0,0,0,65.87,42.74,43.4,43.4,0,0,1,72.59,23.2C82.88,6.88,101.12-.18,113.25,7.46c5.78,3.65,9.35,10.11,10,18.21.71,8.3-1.68,17.28-6.72,25.27a43.4,43.4,0,0,1-14.73,14.48A25.59,25.59,0,0,0,89.16,85.53,43.4,43.4,0,0,1,82.44,105.07Z"/><path d="M96.44,62.32a2,2,0,0,0,3.11-2.51c-.21-.27-1.9-2.34-4.43-5.16,1.68-2.12,3.38-4.05,5-5.79,1.3,1.67,2.4,3.15,3.2,4.3a2,2,0,1,0,3.26-2.31c-.19-.27-1.54-2.16-3.62-4.83,2.1-2,4.06-3.65,5.78-5A31.47,31.47,0,0,1,110,46.24,2,2,0,0,0,112,48h.24A2,2,0,0,0,114,45.76a37.68,37.68,0,0,0-1.88-7.17c1.74-1.2,2.81-1.81,2.87-1.84a2,2,0,0,0-1.93-3.5c-.19.11-1.1.62-2.5,1.54a39.88,39.88,0,0,0-5.87-9.14,103.07,103.07,0,0,1,7.59-7.09,2,2,0,0,0-2.51-3.12,103.7,103.7,0,0,0-7.9,7.3,34.26,34.26,0,0,0-9.41-6.16c2.32-2.57,3.89-4.08,3.94-4.13a2,2,0,0,0-2.76-2.9c-.26.25-2.35,2.25-5.23,5.52a40.06,40.06,0,0,0-4-1A2,2,0,1,0,83.61,18c.66.13,1.31.28,1.94.45-1.48,1.81-3.06,3.85-4.63,6.06a16.42,16.42,0,0,0-3.39-1.4,2,2,0,1,0-1.05,3.86,12.1,12.1,0,0,1,2.17.86,82.36,82.36,0,0,0-5.09,8.9A13.12,13.12,0,0,0,71.39,36,2,2,0,1,0,70.61,40a9.38,9.38,0,0,1,1.31.38A50.12,50.12,0,0,0,69,49.61a42.55,42.55,0,0,1-4.77,12.16l-2.5-1.87a2,2,0,1,0-2.39,3.21l2.82,2.11c-1.64,2.56-3.43,5-5.27,7.36a40.39,40.39,0,0,1-3.35-3.79,2,2,0,0,0-3.17,2.44,45.22,45.22,0,0,0,4,4.47c-1.88,2.21-3.74,4.25-5.45,6a25,25,0,0,1-1.05-2.41,2,2,0,1,0-3.75,1.38,29,29,0,0,0,1.85,4c-.67.66-1.3,1.27-1.88,1.81,0-.26-.09-.5-.12-.77a2,2,0,0,0-4,.5c.15,1.2.36,2.34.6,3.45a2,2,0,0,0,.89,3.36,33.62,33.62,0,0,0,6.26,11.44,16.49,16.49,0,0,1-4.31,2.58,2,2,0,1,0,1.1,3.85,19.45,19.45,0,0,0,6-3.5A39.7,39.7,0,0,0,59.88,114a15,15,0,0,1-9.33,1.09,2,2,0,1,0-1.1,3.85,15.42,15.42,0,0,0,3.95.45A20.26,20.26,0,0,0,64,116.31l.46-.31a27.86,27.86,0,0,0,3.07,1,2,2,0,1,0,.85-3.91l-.17,0a32.56,32.56,0,0,0,5.94-8.18c2.59.78,4.29,1.11,4.42,1.14a2,2,0,0,0,.38,0,2,2,0,0,0,.38-4c-.06,0-1.38-.28-3.45-.88a64,64,0,0,0,3-9.29c1.31.59,2.14.93,2.29,1a2,2,0,0,0,1.49-3.71s-1.13-.46-2.88-1.28c0-.16.07-.32.1-.49a75,75,0,0,1,1.88-7.5l1,.72A2,2,0,1,0,85.2,77.4l-2-1.51a74.73,74.73,0,0,1,3.11-7.27l2.47,2a2,2,0,1,0,2.48-3.14L88.17,65a77.8,77.8,0,0,1,4.51-7.11C94.22,59.63,95.52,61.17,96.44,62.32ZM92.31,51.59c-1.51-1.59-3.18-3.28-4.93-4.95,1.7-2.48,3.4-4.81,5.08-7,1.82,2,3.56,4,5.13,6C95.85,47.41,94.07,49.39,92.31,51.59Zm15-14.52a81,81,0,0,0-6.84,5.74c-1.62-2-3.48-4.16-5.48-6.34,2.46-3,4.82-5.7,7-8A35.09,35.09,0,0,1,107.3,37.07ZM89.69,19.74a30.76,30.76,0,0,1,9.43,5.83c-2.15,2.29-4.51,4.95-7,7.95a64.86,64.86,0,0,0-7.83-6.88C86.17,24.06,88,21.73,89.69,19.74ZM82.07,29.92a62.7,62.7,0,0,1,7.57,6.74c-1.74,2.25-3.52,4.66-5.29,7.23a53.8,53.8,0,0,0-7.21-5.39A79,79,0,0,1,82.07,29.92Zm0,17.32C80.31,50,78.54,53,76.83,56.05l-4.39-3.46c.2-.73.38-1.46.52-2.2a45.41,45.41,0,0,1,2.55-8.24A52.61,52.61,0,0,1,82.12,47.24Zm-11,9.39,3.8,3c-1.23,2.39-2.43,4.86-3.56,7.42L67.5,64.18A56.16,56.16,0,0,0,71.11,56.64ZM69.75,70.85c-1.35,3.28-2.69,6.26-4,9a69,69,0,0,1-5.84-4.49c1.92-2.42,3.81-5,5.54-7.71Zm-12.4,7.58a73.53,73.53,0,0,0,6.54,5,97.87,97.87,0,0,1-5.53,9.24,33.33,33.33,0,0,1-7.3-7.35C53,83.33,55.16,81,57.35,78.43ZM45.09,91.08c.82-.74,1.88-1.72,3.11-2.91A38.06,38.06,0,0,0,56,95.92a55.51,55.51,0,0,1-4.37,5.1l-.87.87A30,30,0,0,1,45.09,91.08ZM63.92,111.5a36,36,0,0,1-10.41-6.71,57.68,57.68,0,0,0,5.81-6.6,54.74,54.74,0,0,0,4.92,2.74,64.48,64.48,0,0,0,6.12,2.61A26.23,26.23,0,0,1,63.92,111.5Zm8.2-11.59a57.36,57.36,0,0,1-10.46-5,100.25,100.25,0,0,0,5.59-9.29c2.94,1.82,5.72,3.32,8,4.48A60.76,60.76,0,0,1,72.12,99.91Zm4-13.86c-2.09-1.08-4.52-2.43-7.06-4q2-4,4-8.72l5.37,4A80.93,80.93,0,0,0,76.16,86Zm3.65-12.67-5.16-3.85c1.1-2.53,2.26-5,3.47-7.35L83,66A79.22,79.22,0,0,0,79.81,73.37Zm5.13-10.92L80,58.58c1.65-3,3.36-5.85,5.1-8.55,1.65,1.59,3.25,3.22,4.73,4.79A81,81,0,0,0,84.94,62.46Z"/><text x="0" y="143" fill="#000000" font-size="5px" font-weight="bold" font-family="'Helvetica Neue', Helvetica, Arial-Unicode, Arial, Sans-serif">Created by Juraj Sedlák</text><text x="0" y="148" fill="#000000" font-size="5px" font-weight="bold" font-family="'Helvetica Neue', Helvetica, Arial-Unicode, Arial, Sans-serif">from the Noun Project</text></svg>
