<svg xmlns="http://www.w3.org/2000/svg" data-name="Layer 1" viewBox="0 0 128 160" x="0px" y="0px"><title>Artboard 60</title><path d="M52,0a6,6,0,0,0,0,12H76A6,6,0,0,0,76,0ZM78,6a2,2,0,0,1-2,2H52a2,2,0,0,1,0-4H76A2,2,0,0,1,78,6Z"/><path d="M95,66.74c0-10.11-2.08-23.47-6.06-29.44a2.12,2.12,0,0,0-.18-.23c-.09-.1-8.54-9.61-9.65-19.09A2,2,0,0,0,79,14H49a2,2,0,0,0-.12,4c-.81,6.94-5.55,13.89-8.07,17.16l-35-35L.17,5.83l36.5,36.5C34.26,49.12,33,58.9,33,66.74V110a18,18,0,0,0,18,18H77a18,18,0,0,0,18-18v-9.34l27.17,27.17,5.66-5.66L95,89.34Zm-4,18.6-2.43-2.43c.91-.38,1.72-.77,2.43-1.15ZM52.9,18H75.1c1,10.45,9.48,20.37,10.59,21.63C89.14,45,91,57.53,91,66.74V77.11a22.27,22.27,0,0,1-5.5,2.73L43.66,38C46.4,34.54,52.08,26.44,52.9,18ZM75,80.69a24.89,24.89,0,0,1-9.47-3.93,2,2,0,0,0-.43-.4C52.93,68,42.19,71.57,37,74.36V66.74a81.1,81.1,0,0,1,2.83-21.26ZM91,110a14,14,0,0,1-14,14H51a14,14,0,0,1-14-14V79a22.45,22.45,0,0,1,7-3.19c6.23-1.63,12.43-.44,18.43,3.55a2,2,0,0,0,.43.4A27.31,27.31,0,0,0,78.54,85l.74,0L91,96.66Z"/><text x="0" y="143" fill="#000000" font-size="5px" font-weight="bold" font-family="'Helvetica Neue', Helvetica, Arial-Unicode, Arial, Sans-serif">Created by Juraj Sedlák</text><text x="0" y="148" fill="#000000" font-size="5px" font-weight="bold" font-family="'Helvetica Neue', Helvetica, Arial-Unicode, Arial, Sans-serif">from the Noun Project</text></svg>
